<?xml version="1.0" standalone="no"?>
<!DOCTYPE svg PUBLIC "-//W3C//DTD SVG 20010904//EN"
 "http://www.w3.org/TR/2001/REC-SVG-20010904/DTD/svg10.dtd">
<svg version="1.0" xmlns="http://www.w3.org/2000/svg"
 width="260.000000pt" height="260.000000pt" viewBox="0 0 260.000000 260.000000"
 preserveAspectRatio="xMidYMid meet">
<metadata>
Created by potrace 1.11, written by Peter Selinger 2001-2013
</metadata>
<g transform="translate(0.000000,260.000000) scale(0.100000,-0.100000)"
fill="#000000" stroke="none">
<path d="M0 1300 l0 -1300 1300 0 1300 0 0 1300 0 1300 -1300 0 -1300 0 0
-1300z m1228 926 c46 -25 490 -478 497 -508 12 -46 -4 -80 -61 -135 -48 -47
-58 -53 -97 -53 -23 0 -53 7 -65 16 -20 14 -23 14 -28 -3 -4 -10 -39 -51 -78
-91 l-71 -72 130 -130 c71 -72 136 -130 143 -130 7 0 24 7 37 16 31 20 94 20
132 0 39 -21 438 -424 457 -463 22 -44 20 -67 -8 -111 -27 -42 -147 -160 -188
-185 -68 -42 -105 -17 -354 235 -228 229 -243 251 -223 323 5 19 14 37 19 40
25 15 1 50 -120 170 l-130 130 -72 -71 c-40 -39 -81 -74 -91 -78 -17 -5 -17
-8 -3 -28 9 -12 16 -42 16 -65 0 -39 -6 -49 -52 -97 -56 -57 -90 -73 -136 -61
-33 8 -495 465 -513 507 -17 43 -3 77 60 140 51 51 62 58 97 58 22 0 49 -7 60
-15 24 -18 34 -19 34 -3 0 17 401 418 417 418 17 0 16 10 -2 34 -8 11 -15 37
-15 58 0 31 8 47 43 85 47 51 93 83 120 83 10 0 30 -6 45 -14z"/>
</g>
</svg>
